M48
;DRILL file {Pcbnew (2013-may-18)-stable} date Tue 06 May 2014 04:52:23 PM CEST
;FORMAT={-:-/ absolute / metric / decimal}
FMAT,2
METRIC,TZ
T1C0.600
T2C0.700
T3C0.800
T4C0.900
T5C1.000
T6C1.500
T7C1.600
T8C3.400
%
G90
G05
M71
T1
X201.3Y-113.5
X203.8Y-93.7
X204.6Y-100.6
X206.2Y-98.2
X206.2Y-136.2
X207.2Y-95.6
X208.7Y-145.9
X209.6Y-121.2
X209.7Y-112.
X209.7Y-123.
X210.Y-139.
X211.Y-124.4
X211.3Y-148.6
X213.3Y-150.
X215.1Y-79.6
X223.77Y-118.09
X224.5Y-89.9
X224.6Y-113.6
X224.8Y-120.
X226.6Y-114.4
X227.1Y-118.1
X236.5Y-67.75
X236.5Y-81.75
X236.5Y-95.75
X236.5Y-109.75
X236.5Y-123.75
X236.5Y-137.75
X236.5Y-151.75
X236.5Y-165.75
X238.Y-72.75
X238.Y-86.75
X238.Y-100.75
X238.Y-114.75
X238.Y-128.75
X238.Y-142.75
X238.Y-156.75
X238.Y-170.75
X238.25Y-62.75
X238.25Y-76.75
X238.25Y-90.75
X238.25Y-104.75
X238.25Y-118.75
X238.25Y-132.75
X238.25Y-146.75
X238.25Y-160.75
X240.5Y-67.75
X240.5Y-81.75
X240.5Y-95.75
X240.5Y-109.75
X240.5Y-123.75
X240.5Y-137.75
X240.5Y-151.75
X240.5Y-165.75
T2
X210.06Y-107.3
X215.14Y-107.3
T3
X209.99Y-153.13
X209.99Y-155.67
X217.61Y-153.13
X217.61Y-155.67
X245.73Y-59.646
X245.73Y-62.186
X245.73Y-64.726
X245.73Y-67.266
X245.73Y-73.616
X245.73Y-76.156
X245.73Y-78.696
X245.73Y-81.236
X245.73Y-87.586
X245.73Y-90.126
X245.73Y-92.666
X245.73Y-95.206
X245.73Y-101.556
X245.73Y-104.096
X245.73Y-106.636
X245.73Y-109.176
X245.73Y-115.526
X245.73Y-118.066
X245.73Y-120.606
X245.73Y-123.146
X245.73Y-129.496
X245.73Y-132.036
X245.73Y-134.576
X245.73Y-137.116
X245.73Y-143.466
X245.73Y-146.006
X245.73Y-148.546
X245.73Y-151.086
X245.73Y-157.436
X245.73Y-159.976
X245.73Y-162.516
X245.73Y-165.056
X248.27Y-60.916
X248.27Y-63.456
X248.27Y-65.996
X248.27Y-68.536
X248.27Y-74.886
X248.27Y-77.426
X248.27Y-79.966
X248.27Y-82.506
X248.27Y-88.856
X248.27Y-91.396
X248.27Y-93.936
X248.27Y-96.476
X248.27Y-102.826
X248.27Y-105.366
X248.27Y-107.906
X248.27Y-110.446
X248.27Y-116.796
X248.27Y-119.336
X248.27Y-121.876
X248.27Y-124.416
X248.27Y-130.766
X248.27Y-133.306
X248.27Y-135.846
X248.27Y-138.386
X248.27Y-144.736
X248.27Y-147.276
X248.27Y-149.816
X248.27Y-152.356
X248.27Y-158.706
X248.27Y-161.246
X248.27Y-163.786
X248.27Y-166.326
T4
X200.73Y-119.42
X200.73Y-121.96
X200.73Y-124.5
X200.73Y-127.04
X200.73Y-129.58
X200.73Y-142.96
X200.73Y-145.5
X200.73Y-148.04
X200.73Y-160.96
X200.73Y-163.5
X200.73Y-166.04
X202.Y-98.19
X202.Y-100.73
X202.Y-103.27
X202.Y-105.81
X203.27Y-119.42
X203.27Y-121.96
X203.27Y-124.5
X203.27Y-127.04
X203.27Y-129.58
X203.27Y-142.96
X203.27Y-145.5
X203.27Y-148.04
X203.27Y-160.96
X203.27Y-163.5
X203.27Y-166.04
X210.Y-74.46
X210.Y-77.
X210.Y-79.54
T5
X202.Y-72.73
X202.Y-75.27
X202.Y-79.73
X202.Y-82.27
X202.Y-86.73
X202.Y-89.27
X212.75Y-139.949
X212.75Y-146.451
X212.75Y-162.349
X212.75Y-168.851
X217.25Y-139.949
X217.25Y-146.451
X217.25Y-162.349
X217.25Y-168.851
X233.8Y-48.46
X233.8Y-51.
X233.8Y-53.54
T6
X207.7Y-67.5
X209.7Y-61.8
X209.7Y-65.1
T7
X244.42Y-154.896
X244.48Y-71.076
X244.48Y-85.046
X244.48Y-99.016
X244.48Y-126.956
X244.48Y-140.926
X244.5Y-112.986
X259.53Y-55.646
X259.53Y-170.326
T8
X216.Y-51.
X255.Y-49.
T0
M30
