M48
;DRILL file {Pcbnew (2013-may-18)-stable} date Thu 08 May 2014 10:08:57 AM CEST
;FORMAT={3:3/ absolute / metric / keep zeros}
FMAT,2
METRIC,TZ
T1C0.600
T2C0.700
T3C0.800
T4C0.900
T5C1.000
T6C1.500
T7C1.600
T8C3.400
%
G90
G05
M71
T1
X022106Y-023142
X022106Y-024412
X022106Y-025682
X022750Y-082500
X026000Y-071500
X027700Y-075700
X028730Y-041588
X028944Y-032508
X028944Y-033778
X028944Y-035048
X030000Y-041588
X030250Y-161000
X030500Y-088750
X031270Y-041588
X034500Y-084750
X035250Y-159500
X035250Y-163500
X040250Y-161250
X040500Y-053250
X043730Y-096412
X044250Y-161000
X044500Y-049250
X045000Y-096412
X046270Y-096412
X047300Y-062300
X049000Y-066500
X049250Y-159500
X049250Y-163500
X051000Y-136300
X052250Y-055500
X052400Y-134300
X052750Y-082500
X054250Y-161250
X055100Y-131700
X056000Y-071500
X057700Y-075700
X058250Y-161000
X058730Y-041588
X060000Y-041588
X060500Y-088750
X061200Y-133100
X061270Y-041588
X063250Y-159500
X063250Y-163500
X064500Y-084750
X064800Y-129200
X068250Y-161250
X070500Y-053250
X072250Y-161000
X073730Y-096412
X074500Y-049250
X075000Y-096412
X076270Y-096412
X076600Y-134000
X077250Y-159500
X077250Y-163500
X077300Y-062300
X078000Y-132700
X079000Y-066500
X079800Y-132600
X081000Y-147800
X082250Y-055500
X082250Y-161250
X082750Y-082500
X082900Y-150100
X082910Y-146770
X086000Y-071500
X086250Y-161000
X086600Y-149600
X087400Y-147600
X087500Y-124300
X087700Y-075700
X088730Y-041588
X089000Y-132700
X090000Y-041588
X090500Y-088750
X091250Y-159500
X091250Y-163500
X091270Y-041588
X094500Y-084750
X096250Y-161250
X100250Y-161000
X100400Y-127600
X100500Y-053250
X102800Y-129200
X103730Y-096412
X104500Y-049250
X105000Y-096412
X105250Y-159500
X105250Y-163500
X105400Y-130200
X106270Y-096412
X107300Y-062300
X107300Y-126800
X109000Y-066500
X110250Y-161250
X111100Y-147500
X112250Y-055500
X112750Y-082500
X114250Y-161000
X116000Y-071500
X117700Y-075700
X118730Y-041588
X119250Y-159500
X119250Y-163500
X120000Y-041588
X120500Y-088750
X121270Y-041588
X121400Y-138100
X124250Y-161250
X124500Y-084750
X128250Y-161000
X130500Y-053250
X133250Y-159500
X133250Y-163500
X133730Y-096412
X134500Y-049250
X135000Y-096412
X136270Y-096412
X137300Y-062300
X138250Y-161250
X139000Y-066500
X142250Y-055500
X151750Y-082500
X155000Y-071500
X156700Y-075700
X157730Y-041588
X159000Y-041588
X159500Y-088750
X160270Y-041588
X163500Y-084750
X164500Y-178000
X165116Y-120952
X165116Y-122222
X165116Y-123492
X169500Y-053250
X172730Y-096412
X173500Y-049250
X174000Y-096412
X175270Y-096412
X176300Y-062300
X178000Y-066500
X178000Y-133900
X181250Y-055500
X182300Y-137000
X182500Y-176000
X183000Y-132500
X184100Y-112300
X184595Y-069873
X185500Y-135500
X185865Y-069873
X186500Y-117100
X187135Y-069873
X187500Y-144000
X188405Y-069873
X190000Y-138000
X190500Y-132000
X192000Y-158000
X194000Y-141000
X194500Y-053500
X196500Y-036500
X197500Y-175500
X198000Y-062500
X198500Y-056500
X200095Y-124627
X201000Y-050500
X201365Y-124627
X202000Y-077400
X202635Y-124627
X203000Y-059000
X203905Y-124627
X204400Y-082200
X205500Y-062000
X206200Y-057500
X209000Y-172500
X210500Y-060600
X211676Y-109406
X212181Y-099091
X212946Y-109406
X213451Y-099091
X214216Y-109406
X214721Y-099091
X215486Y-109406
X215991Y-099091
X216000Y-178000
T2
X093700Y-133060
X093700Y-138140
T3
X025555Y-102540
X026825Y-100000
X028095Y-102540
X029370Y-100000
X030635Y-102540
X031905Y-100000
X033175Y-102540
X034445Y-100000
X034674Y-171270
X035944Y-168730
X037214Y-171270
X038484Y-168730
X039754Y-171270
X040555Y-038000
X041024Y-168730
X041825Y-035460
X042294Y-171270
X043095Y-038000
X043564Y-168730
X044365Y-035460
X045330Y-132990
X045330Y-140610
X045630Y-038000
X046905Y-035460
X047870Y-132990
X047870Y-140610
X048175Y-038000
X048644Y-171270
X049445Y-035460
X049914Y-168730
X051184Y-171270
X052454Y-168730
X053724Y-171270
X054994Y-168730
X055555Y-102540
X056264Y-171270
X056825Y-100000
X057534Y-168730
X058095Y-102540
X059370Y-100000
X060635Y-102540
X061905Y-100000
X062614Y-171270
X063175Y-102540
X063884Y-168730
X064445Y-100000
X065154Y-171270
X066424Y-168730
X067694Y-171270
X068964Y-168730
X070234Y-171270
X070555Y-038000
X071504Y-168730
X071825Y-035460
X073095Y-038000
X074365Y-035460
X075630Y-038000
X076584Y-171270
X076905Y-035460
X077854Y-168730
X078175Y-038000
X079124Y-171270
X079445Y-035460
X080394Y-168730
X081664Y-171270
X082934Y-168730
X084204Y-171270
X085474Y-168730
X085555Y-102540
X086825Y-100000
X088095Y-102540
X089370Y-100000
X090554Y-171270
X090635Y-102540
X091824Y-168730
X091905Y-100000
X093094Y-171270
X093175Y-102540
X094364Y-168730
X094445Y-100000
X095634Y-171270
X096904Y-168730
X098174Y-171270
X099444Y-168730
X100555Y-038000
X101825Y-035460
X103095Y-038000
X104365Y-035460
X104524Y-171270
X105630Y-038000
X105794Y-168730
X106905Y-035460
X107064Y-171270
X108175Y-038000
X108334Y-168730
X109445Y-035460
X109604Y-171270
X110874Y-168730
X112144Y-171270
X113414Y-168730
X115555Y-102540
X116825Y-100000
X118095Y-102540
X118494Y-171270
X119370Y-100000
X119764Y-168730
X120635Y-102540
X121034Y-171270
X121905Y-100000
X122304Y-168730
X123175Y-102540
X123574Y-171270
X124445Y-100000
X124844Y-168730
X126114Y-171270
X127384Y-168730
X130555Y-038000
X131825Y-035460
X132464Y-171270
X133095Y-038000
X133734Y-168730
X134365Y-035460
X135004Y-171270
X135630Y-038000
X136274Y-168730
X136905Y-035460
X137544Y-171270
X138175Y-038000
X138814Y-168730
X139445Y-035460
X140084Y-171270
X141354Y-168730
X154555Y-102540
X155825Y-100000
X157095Y-102540
X158370Y-100000
X159635Y-102540
X160905Y-100000
X162175Y-102540
X163445Y-100000
X169555Y-038000
X170825Y-035460
X172095Y-038000
X173365Y-035460
X174630Y-038000
X175905Y-035460
X177175Y-038000
X178445Y-035460
X182055Y-156040
X183325Y-153500
X184595Y-156040
X185870Y-153500
X187135Y-156040
X188405Y-153500
X189675Y-156040
X190945Y-153500
X197555Y-041000
X198825Y-038460
X200095Y-041000
X201365Y-038460
X202630Y-041000
X203905Y-038460
X205175Y-041000
X206445Y-038460
T4
X021952Y-031238
X021952Y-033778
X021952Y-036318
X029098Y-021872
X029098Y-024412
X029098Y-026952
X034960Y-123730
X034960Y-126270
X037500Y-123730
X037500Y-126270
X040040Y-123730
X040040Y-126270
X052960Y-123730
X052960Y-126270
X055500Y-123730
X055500Y-126270
X058040Y-123730
X058040Y-126270
X071420Y-123730
X071420Y-126270
X073960Y-123730
X073960Y-126270
X076500Y-123730
X076500Y-126270
X079040Y-123730
X079040Y-126270
X081580Y-123730
X081580Y-126270
X095190Y-125000
X097730Y-125000
X100270Y-125000
X102810Y-125000
X121460Y-133000
X124000Y-133000
X126540Y-133000
X135448Y-103026
X135448Y-115726
X137988Y-103026
X137988Y-115726
X140528Y-103026
X140528Y-115726
X143068Y-103026
X143068Y-115726
X150848Y-021626
X150848Y-034326
X153388Y-021626
X153388Y-034326
X155928Y-021626
X155928Y-034326
X158468Y-021626
X158468Y-034326
X162700Y-131330
X162700Y-133870
X162700Y-136410
X162700Y-138950
X162700Y-141490
X162700Y-144030
X162700Y-146570
X162700Y-149110
X162700Y-154190
X162700Y-156730
X162700Y-159270
X162700Y-161810
X162700Y-164350
X162700Y-166890
X165700Y-131330
X165700Y-133870
X165700Y-136410
X165700Y-138950
X165700Y-141490
X165700Y-144030
X165700Y-146570
X165700Y-149110
X165700Y-154190
X165700Y-156730
X165700Y-159270
X165700Y-161810
X165700Y-164350
X165700Y-166890
X172108Y-119682
X172108Y-122222
X172108Y-124762
X172460Y-176730
X172460Y-179270
X175000Y-176730
X175000Y-179270
X177540Y-176730
X177540Y-179270
X178795Y-108400
X180065Y-106200
X181335Y-104000
X181420Y-124230
X181420Y-126770
X182605Y-101800
X183960Y-124230
X183960Y-126770
X186500Y-124230
X186500Y-126770
X188730Y-179500
X189040Y-124230
X189040Y-126770
X191270Y-179500
X191580Y-124230
X191580Y-126770
X196920Y-067730
X196920Y-070270
X199460Y-067730
X199460Y-070270
X201960Y-176730
X201960Y-179270
X202000Y-067730
X202000Y-070270
X204500Y-176730
X204500Y-179270
X204540Y-067730
X204540Y-070270
X205895Y-092700
X207040Y-176730
X207040Y-179270
X207080Y-067730
X207080Y-070270
X207165Y-090500
X208435Y-088300
X209705Y-086100
X209771Y-114613
X210276Y-104298
X212311Y-114613
X212816Y-104298
X214000Y-122090
X214000Y-124630
X214000Y-127170
X214000Y-129710
X214000Y-132250
X214000Y-134790
X214000Y-137330
X214000Y-139870
X214000Y-142410
X214000Y-144950
X214000Y-149110
X214000Y-151650
X214000Y-154190
X214000Y-156730
X214000Y-159270
X214000Y-161810
X214000Y-164350
X214000Y-166890
X214851Y-114613
X215356Y-104298
X217000Y-121070
X217000Y-123610
X217000Y-126150
X217000Y-128690
X217000Y-131230
X217000Y-133770
X217000Y-136310
X217000Y-138850
X217000Y-141390
X217000Y-143930
X217000Y-149110
X217000Y-151650
X217000Y-154190
X217000Y-156730
X217000Y-159270
X217000Y-161810
X217000Y-164350
X217000Y-166890
X217391Y-114613
X217896Y-104298
T5
X032149Y-135750
X032149Y-140250
X038651Y-135750
X038651Y-140250
X054549Y-135750
X054549Y-140250
X061051Y-135750
X061051Y-140250
X111730Y-125000
X114270Y-125000
X118730Y-125000
X121270Y-125000
X125730Y-125000
X128270Y-125000
X147460Y-156800
X150000Y-156800
X152540Y-156800
X190250Y-143749
X190250Y-150251
X193750Y-044249
X193750Y-050751
X194750Y-143749
X194750Y-150251
X198250Y-044249
X198250Y-050751
T6
X133500Y-130700
X135900Y-132700
X139200Y-132700
T7
X022100Y-112000
X030674Y-182530
X037100Y-026000
X037900Y-112000
X046104Y-167420
X052100Y-112000
X052900Y-026000
X060074Y-167480
X067100Y-026000
X067900Y-112000
X074044Y-167480
X082100Y-112000
X082900Y-026000
X088014Y-167500
X097100Y-026000
X097900Y-112000
X101984Y-167480
X112100Y-112000
X112900Y-026000
X115954Y-167480
X127100Y-026000
X127900Y-112000
X129924Y-167480
X142900Y-026000
X145354Y-182530
X151100Y-112000
X166100Y-026000
X166900Y-112000
X178600Y-165500
X181900Y-026000
X194100Y-029000
X194400Y-165500
X209900Y-029000
T8
X150000Y-139000
X152000Y-178000
T0
M30
