M48
;DRILL file {Pcbnew (2013-may-18)-stable} date Thu 08 May 2014 10:08:57 AM CEST
;FORMAT={3:3/ absolute / metric / keep zeros}
FMAT,2
METRIC,TZ
T1C1.500
T2C3.200
T3C3.400
%
G90
G05
M71
T1
X134000Y-127000
X140000Y-127000
T2
X033414Y-177620
X088014Y-177620
X142614Y-177620
T3
X024285Y-108900
X025000Y-091750
X025000Y-126000
X025000Y-178000
X035000Y-075750
X035715Y-108900
X039285Y-029100
X040000Y-062250
X050000Y-046250
X050715Y-029100
X054285Y-108900
X055000Y-091750
X065000Y-075750
X065715Y-108900
X069285Y-029100
X070000Y-062250
X080000Y-046250
X080715Y-029100
X084285Y-108900
X085000Y-091750
X095000Y-075750
X095715Y-108900
X099285Y-029100
X100000Y-062250
X110000Y-046250
X110715Y-029100
X114285Y-108900
X115000Y-091750
X125000Y-075750
X125715Y-108900
X129285Y-029100
X130000Y-062250
X140000Y-046250
X140715Y-029100
X152000Y-126000
X153285Y-108900
X154000Y-091750
X164000Y-075750
X164715Y-108900
X168285Y-029100
X169000Y-062250
X179000Y-046250
X179715Y-029100
X180785Y-162400
X181500Y-146000
X191500Y-104500
X192215Y-162400
X196285Y-032100
X197000Y-090000
X207000Y-048500
X207715Y-032100
T0
M30
