M48
;DRILL file {Pcbnew (2013-may-18)-stable} date Tue 06 May 2014 04:50:48 PM CEST
;FORMAT={-:-/ absolute / metric / decimal}
FMAT,2
METRIC,TZ
T1C0.600
T2C0.800
T3C0.900
T4C1.000
T5C1.600
%
G90
G05
M71
T1
X101.373Y-94.095
X101.373Y-95.365
X101.373Y-96.635
X101.373Y-97.905
X141.4Y-93.6
X143.8Y-98.4
X148.6Y-96.
X163.5Y-92.
X164.Y-99.5
X165.5Y-105.
X167.Y-97.
X168.5Y-100.5
X169.5Y-92.5
X172.5Y-88.5
X175.5Y-95.
X189.5Y-90.5
T2
X185.Y-91.555
X185.Y-94.095
X185.Y-96.63
X185.Y-99.175
X187.54Y-92.825
X187.54Y-95.365
X187.54Y-97.905
X187.54Y-100.445
T3
X133.3Y-99.895
X135.5Y-101.165
X137.7Y-102.435
X139.9Y-103.705
X155.73Y-90.92
X155.73Y-93.46
X155.73Y-96.
X155.73Y-98.54
X155.73Y-101.08
X158.27Y-90.92
X158.27Y-93.46
X158.27Y-96.
X158.27Y-98.54
X158.27Y-101.08
T4
X175.249Y-87.75
X175.249Y-92.25
X181.751Y-87.75
X181.751Y-92.25
T5
X197.Y-88.1
X197.Y-103.9
T0
M30
